<mxfile host="app.diagrams.net" agent="Mozilla/5.0 (Windows NT 10.0; Win64; x64) AppleWebKit/537.36 (KHTML, like Gecko) Chrome/135.0.0.0 Safari/537.36" version="26.2.9">
  <diagram name="Page-1" id="ak23jO3K8VafbWeqjCI3">
    <mxGraphModel dx="874" dy="473" grid="1" gridSize="10" guides="1" tooltips="1" connect="1" arrows="1" fold="1" page="1" pageScale="1" pageWidth="850" pageHeight="1100" math="0" shadow="0">
      <root>
        <mxCell id="0" />
        <mxCell id="1" parent="0" />
        <mxCell id="MF9wgjEnGp3O1Wm9Sr6L-1" value="" style="rounded=0;whiteSpace=wrap;html=1;" vertex="1" parent="1">
          <mxGeometry x="115" y="80" width="130" height="330" as="geometry" />
        </mxCell>
        <mxCell id="MF9wgjEnGp3O1Wm9Sr6L-2" value="" style="rounded=0;whiteSpace=wrap;html=1;" vertex="1" parent="1">
          <mxGeometry x="310" y="80" width="160" height="330" as="geometry" />
        </mxCell>
        <mxCell id="MF9wgjEnGp3O1Wm9Sr6L-30" style="edgeStyle=orthogonalEdgeStyle;rounded=0;orthogonalLoop=1;jettySize=auto;html=1;entryX=0;entryY=0.5;entryDx=0;entryDy=0;" edge="1" parent="1" source="MF9wgjEnGp3O1Wm9Sr6L-3" target="MF9wgjEnGp3O1Wm9Sr6L-11">
          <mxGeometry relative="1" as="geometry" />
        </mxCell>
        <mxCell id="MF9wgjEnGp3O1Wm9Sr6L-32" style="edgeStyle=orthogonalEdgeStyle;rounded=0;orthogonalLoop=1;jettySize=auto;html=1;entryX=0;entryY=0.5;entryDx=0;entryDy=0;" edge="1" parent="1" source="MF9wgjEnGp3O1Wm9Sr6L-3" target="MF9wgjEnGp3O1Wm9Sr6L-14">
          <mxGeometry relative="1" as="geometry" />
        </mxCell>
        <mxCell id="MF9wgjEnGp3O1Wm9Sr6L-33" style="edgeStyle=orthogonalEdgeStyle;rounded=0;orthogonalLoop=1;jettySize=auto;html=1;entryX=0;entryY=0.5;entryDx=0;entryDy=0;" edge="1" parent="1" source="MF9wgjEnGp3O1Wm9Sr6L-3" target="MF9wgjEnGp3O1Wm9Sr6L-13">
          <mxGeometry relative="1" as="geometry" />
        </mxCell>
        <mxCell id="MF9wgjEnGp3O1Wm9Sr6L-3" value="" style="image;aspect=fixed;html=1;points=[];align=center;fontSize=12;image=img/lib/azure2/general/Folder_Blank.svg;" vertex="1" parent="1">
          <mxGeometry x="161.51999999999998" y="150" width="36.96" height="30" as="geometry" />
        </mxCell>
        <mxCell id="MF9wgjEnGp3O1Wm9Sr6L-34" style="edgeStyle=orthogonalEdgeStyle;rounded=0;orthogonalLoop=1;jettySize=auto;html=1;" edge="1" parent="1" source="MF9wgjEnGp3O1Wm9Sr6L-4" target="MF9wgjEnGp3O1Wm9Sr6L-15">
          <mxGeometry relative="1" as="geometry" />
        </mxCell>
        <mxCell id="MF9wgjEnGp3O1Wm9Sr6L-35" style="edgeStyle=orthogonalEdgeStyle;rounded=0;orthogonalLoop=1;jettySize=auto;html=1;entryX=0;entryY=0.75;entryDx=0;entryDy=0;" edge="1" parent="1" source="MF9wgjEnGp3O1Wm9Sr6L-4" target="MF9wgjEnGp3O1Wm9Sr6L-16">
          <mxGeometry relative="1" as="geometry" />
        </mxCell>
        <mxCell id="MF9wgjEnGp3O1Wm9Sr6L-36" style="edgeStyle=orthogonalEdgeStyle;rounded=0;orthogonalLoop=1;jettySize=auto;html=1;entryX=0;entryY=0.5;entryDx=0;entryDy=0;" edge="1" parent="1" source="MF9wgjEnGp3O1Wm9Sr6L-4" target="MF9wgjEnGp3O1Wm9Sr6L-20">
          <mxGeometry relative="1" as="geometry" />
        </mxCell>
        <mxCell id="MF9wgjEnGp3O1Wm9Sr6L-4" value="" style="image;aspect=fixed;html=1;points=[];align=center;fontSize=12;image=img/lib/azure2/general/Folder_Blank.svg;" vertex="1" parent="1">
          <mxGeometry x="161.51999999999998" y="290" width="36.96" height="30" as="geometry" />
        </mxCell>
        <mxCell id="MF9wgjEnGp3O1Wm9Sr6L-5" value="CRM" style="text;html=1;align=center;verticalAlign=middle;whiteSpace=wrap;rounded=0;" vertex="1" parent="1">
          <mxGeometry x="150" y="180" width="60" height="30" as="geometry" />
        </mxCell>
        <mxCell id="MF9wgjEnGp3O1Wm9Sr6L-8" value="ERP" style="text;html=1;align=center;verticalAlign=middle;whiteSpace=wrap;rounded=0;" vertex="1" parent="1">
          <mxGeometry x="150" y="320" width="60" height="30" as="geometry" />
        </mxCell>
        <mxCell id="MF9wgjEnGp3O1Wm9Sr6L-10" value="BRONZE LAYER" style="rounded=1;whiteSpace=wrap;html=1;fillColor=#ffe6cc;strokeColor=#d79b00;" vertex="1" parent="1">
          <mxGeometry x="310" y="80" width="160" height="30" as="geometry" />
        </mxCell>
        <mxCell id="MF9wgjEnGp3O1Wm9Sr6L-11" value="crm_sales_details" style="rounded=0;whiteSpace=wrap;html=1;fillColor=#ffe6cc;strokeColor=#d79b00;" vertex="1" parent="1">
          <mxGeometry x="320" y="140" width="140" height="30" as="geometry" />
        </mxCell>
        <mxCell id="MF9wgjEnGp3O1Wm9Sr6L-13" value="crm_cust_info" style="rounded=0;whiteSpace=wrap;html=1;fillColor=#ffe6cc;strokeColor=#d79b00;" vertex="1" parent="1">
          <mxGeometry x="320" y="180" width="140" height="30" as="geometry" />
        </mxCell>
        <mxCell id="MF9wgjEnGp3O1Wm9Sr6L-14" value="crm_prd_info" style="rounded=0;whiteSpace=wrap;html=1;fillColor=#ffe6cc;strokeColor=#d79b00;" vertex="1" parent="1">
          <mxGeometry x="320" y="220" width="140" height="30" as="geometry" />
        </mxCell>
        <mxCell id="MF9wgjEnGp3O1Wm9Sr6L-15" value="erp_cust_az12" style="rounded=0;whiteSpace=wrap;html=1;fillColor=#ffe6cc;strokeColor=#d79b00;" vertex="1" parent="1">
          <mxGeometry x="320" y="290" width="140" height="30" as="geometry" />
        </mxCell>
        <mxCell id="MF9wgjEnGp3O1Wm9Sr6L-16" value="erp_loc_a101" style="rounded=0;whiteSpace=wrap;html=1;fillColor=#ffe6cc;strokeColor=#d79b00;" vertex="1" parent="1">
          <mxGeometry x="320" y="330" width="140" height="30" as="geometry" />
        </mxCell>
        <mxCell id="MF9wgjEnGp3O1Wm9Sr6L-20" value="erp_px_cat_g1v2" style="rounded=0;whiteSpace=wrap;html=1;fillColor=#ffe6cc;strokeColor=#d79b00;" vertex="1" parent="1">
          <mxGeometry x="320" y="370" width="140" height="30" as="geometry" />
        </mxCell>
      </root>
    </mxGraphModel>
  </diagram>
</mxfile>
